<?xml version="1.0" encoding="utf-8"?>
<!-- Generator: Adobe Illustrator 27.0.1, SVG Export Plug-In . SVG Version: 6.00 Build 0)  -->
<svg version="1.1" id="Layer_1" xmlns="http://www.w3.org/2000/svg" xmlns:xlink="http://www.w3.org/1999/xlink" x="0px" y="0px"
	 viewBox="0 0 500 350" style="enable-background:new 0 0 500 350;" xml:space="preserve">
<style type="text/css">
	.st0{clip-path:url(#SVGID_00000171720250028880548910000014382407024645171642_);fill:#FFFFFF;}
	.st1{clip-path:url(#SVGID_00000171720250028880548910000014382407024645171642_);}
	.st2{fill:none;stroke:#D1D3D4;stroke-width:0.8504;stroke-linejoin:round;stroke-miterlimit:10;}
</style>
<g>
	<defs>
		<rect id="SVGID_1_" x="0" y="2" width="500" height="348"/>
	</defs>
	<clipPath id="SVGID_00000090259995608416156470000018153043544811266730_">
		<use xlink:href="#SVGID_1_"  style="overflow:visible;"/>
	</clipPath>
	
		<rect x="0" y="2" style="clip-path:url(#SVGID_00000090259995608416156470000018153043544811266730_);fill:#FFFFFF;" width="500" height="348"/>
	<g style="clip-path:url(#SVGID_00000090259995608416156470000018153043544811266730_);">
		<path class="st2" d="M21.62,19.26"/>
		<line class="st2" x1="21.67" y1="19.26" x2="88.29" y2="49.26"/>
		<path class="st2" d="M88.29,49.26"/>
		<line class="st2" x1="88.33" y1="49.26" x2="124.96" y2="26.59"/>
		<line class="st2" x1="176.46" y1="2" x2="124.96" y2="26.59"/>
		<polygon class="st2" points="125,26.59 176.5,2 203.62,18.59 		"/>
		<line class="st2" x1="203.62" y1="18.59" x2="176.5" y2="2"/>
		<line class="st2" x1="203.67" y1="18.59" x2="260.29" y2="58.59"/>
		<path class="st2" d="M260.29,58.59"/>
		<line class="st2" x1="260.33" y1="58.59" x2="308.96" y2="21.92"/>
		<path class="st2" d="M308.96,21.92"/>
		<line class="st2" x1="309" y1="21.92" x2="359.62" y2="25.92"/>
		<path class="st2" d="M359.62,25.92"/>
		<line class="st2" x1="359.67" y1="25.92" x2="439.62" y2="62.59"/>
		<path class="st2" d="M439.62,62.59"/>
		<line class="st2" x1="439.67" y1="62.59" x2="499.71" y2="34.93"/>
		<line class="st2" x1="529.08" y1="0" x2="499.71" y2="34.93"/>
		<polygon class="st2" points="-29.18,35.01 0.19,69.94 21.62,19.33 		"/>
		<polygon class="st2" points="60.96,92.59 21.62,19.33 0.19,69.94 		"/>
		<polygon class="st2" points="21.67,19.33 61,92.59 88.29,49.33 		"/>
		<polygon class="st2" points="114.29,55.26 88.29,49.33 61,92.59 		"/>
		<polygon class="st2" points="88.33,49.33 114.33,55.26 124.96,26.67 		"/>
		<polygon class="st2" points="196.29,57.92 124.96,26.67 114.33,55.26 		"/>
		<polygon class="st2" points="125,26.67 196.33,57.92 203.62,18.67 		"/>
		<polygon class="st2" points="214.29,73.92 203.62,18.67 196.33,57.92 		"/>
		<polygon class="st2" points="203.67,18.67 214.33,73.92 260.29,58.67 		"/>
		<polygon class="st2" points="272.96,79.92 260.29,58.67 214.33,73.92 		"/>
		<polygon class="st2" points="260.33,58.67 273,79.92 308.96,22 		"/>
		<polygon class="st2" points="317.62,66.59 308.96,22 273,79.92 		"/>
		<polygon class="st2" points="309,22 317.67,66.59 359.62,26 		"/>
		<polygon class="st2" points="376.96,45.92 359.62,26 317.67,66.59 		"/>
		<polygon class="st2" points="359.67,26 377,45.92 439.62,62.67 		"/>
		<polygon class="st2" points="474.96,100.59 439.62,62.67 377,45.92 		"/>
		<polygon class="st2" points="439.67,62.67 475,100.59 499.71,35.01 		"/>
		<polygon class="st2" points="529.08,69.94 499.71,35.01 475,100.59 		"/>
		<polygon class="st2" points="-29.18,104.95 0.19,70.02 29.62,125.92 		"/>
		<polygon class="st2" points="60.96,92.67 29.62,125.92 0.19,70.02 		"/>
		<polygon class="st2" points="29.67,125.92 61,92.67 88.32,104.95 		"/>
		<polygon class="st2" points="114.29,55.33 88.32,104.95 61,92.67 		"/>
		<polygon class="st2" points="88.36,104.95 114.33,55.33 146.29,125.26 		"/>
		<polygon class="st2" points="196.29,58 146.29,125.26 114.33,55.33 		"/>
		<polygon class="st2" points="146.33,125.26 196.33,58 192.96,97.26 		"/>
		<polygon class="st2" points="214.29,74 192.96,97.26 196.33,58 		"/>
		<polygon class="st2" points="193,97.26 214.33,74 285.62,125.26 		"/>
		<polygon class="st2" points="272.96,80 285.62,125.26 214.33,74 		"/>
		<polygon class="st2" points="285.67,125.26 273,80 339.4,104.95 		"/>
		<polygon class="st2" points="317.62,66.67 339.4,104.95 273,80 		"/>
		<polygon class="st2" points="339.45,104.95 317.67,66.67 386.96,120.59 		"/>
		<polygon class="st2" points="376.96,46 386.96,120.59 317.67,66.67 		"/>
		<polygon class="st2" points="387,120.59 377,46 422.96,89.92 		"/>
		<polygon class="st2" points="474.96,100.67 422.96,89.92 377,46 		"/>
		<polygon class="st2" points="423,89.92 475,100.67 499.71,126.59 		"/>
		<polygon class="st2" points="529.08,70.02 499.71,126.59 475,100.67 		"/>
		<polygon class="st2" points="-29.18,105.02 0.19,139.95 29.62,126 		"/>
		<polygon class="st2" points="70.29,161.26 29.62,126 0.19,139.95 		"/>
		<polygon class="st2" points="29.67,126 70.33,161.26 88.32,105.02 		"/>
		<polygon class="st2" points="117.69,139.95 88.32,105.02 70.33,161.26 		"/>
		<polygon class="st2" points="88.36,105.02 117.73,139.95 146.29,125.33 		"/>
		<polygon class="st2" points="144.96,157.92 146.29,125.33 117.73,139.95 		"/>
		<polygon class="st2" points="146.33,125.33 145,157.92 192.96,97.33 		"/>
		<polygon class="st2" points="216.96,114.59 192.96,97.33 145,157.92 		"/>
		<polygon class="st2" points="193,97.33 217,114.59 285.62,125.33 		"/>
		<polygon class="st2" points="299.62,163.92 285.62,125.33 217,114.59 		"/>
		<polygon class="st2" points="285.67,125.33 299.67,163.92 339.4,105.02 		"/>
		<polygon class="st2" points="351.62,140.59 339.4,105.02 299.67,163.92 		"/>
		<polygon class="st2" points="339.45,105.02 351.67,140.59 386.96,120.67 		"/>
		<polygon class="st2" points="410.29,167.92 386.96,120.67 351.67,140.59 		"/>
		<polygon class="st2" points="387,120.67 410.33,167.92 422.96,90 		"/>
		<polygon class="st2" points="470.31,139.95 422.96,90 410.33,167.92 		"/>
		<polygon class="st2" points="423,90 470.35,139.95 499.71,126.67 		"/>
		<polygon class="st2" points="529.08,167.26 499.71,126.67 470.35,139.95 		"/>
		<polygon class="st2" points="-29.18,174.96 0.19,140.03 29.55,191.92 		"/>
		<polygon class="st2" points="70.29,161.33 29.55,191.92 0.19,140.03 		"/>
		<polygon class="st2" points="29.59,191.92 70.33,161.33 88.32,174.96 		"/>
		<polygon class="st2" points="117.69,140.03 88.32,174.96 70.33,161.33 		"/>
		<polygon class="st2" points="88.36,174.96 117.73,140.03 154.96,195.25 		"/>
		<polygon class="st2" points="144.96,158 154.96,195.25 117.73,140.03 		"/>
		<polygon class="st2" points="155,195.25 145,158 205.86,174.96 		"/>
		<polygon class="st2" points="216.96,114.67 205.86,174.96 145,158 		"/>
		<polygon class="st2" points="205.91,174.96 217,114.67 238.29,177.92 		"/>
		<polygon class="st2" points="299.62,164 238.29,177.92 217,114.67 		"/>
		<polygon class="st2" points="238.33,177.92 299.67,164 323.4,191.92 		"/>
		<polygon class="st2" points="351.62,140.67 323.4,191.92 299.67,164 		"/>
		<polygon class="st2" points="323.45,191.92 351.67,140.67 394.29,198.59 		"/>
		<polygon class="st2" points="410.29,168 394.29,198.59 351.67,140.67 		"/>
		<polygon class="st2" points="394.33,198.59 410.33,168 440.29,161.92 		"/>
		<polygon class="st2" points="470.31,140.03 440.29,161.92 410.33,168 		"/>
		<polygon class="st2" points="440.33,161.92 470.35,140.03 499.71,174.96 		"/>
		<polygon class="st2" points="529.08,167.33 499.71,174.96 470.35,140.03 		"/>
		<polygon class="st2" points="-29.18,175.04 0.19,209.97 29.55,192 		"/>
		<polygon class="st2" points="74.96,232.59 29.55,192 0.19,209.97 		"/>
		<polygon class="st2" points="29.59,192 75,232.59 88.32,175.04 		"/>
		<polygon class="st2" points="116.29,196.59 88.32,175.04 75,232.59 		"/>
		<polygon class="st2" points="88.36,175.04 116.33,196.59 154.96,195.33 		"/>
		<polygon class="st2" points="173.62,243.25 154.96,195.33 116.33,196.59 		"/>
		<polygon class="st2" points="155,195.33 173.67,243.25 205.86,175.04 		"/>
		<polygon class="st2" points="245.89,209.3 205.86,175.04 173.67,243.25 		"/>
		<polygon class="st2" points="205.91,175.04 245.94,209.3 238.29,178 		"/>
		<polygon class="st2" points="302.96,233.92 238.29,178 245.94,209.3 		"/>
		<polygon class="st2" points="238.33,178 303,233.92 323.4,192 		"/>
		<polygon class="st2" points="351.62,203.92 323.4,192 303,233.92 		"/>
		<polygon class="st2" points="323.45,192 351.67,203.92 394.29,198.67 		"/>
		<polygon class="st2" points="384.29,230.59 394.29,198.67 351.67,203.92 		"/>
		<polygon class="st2" points="394.33,198.67 384.33,230.59 440.29,162 		"/>
		<polygon class="st2" points="476.29,225.92 440.29,162 384.33,230.59 		"/>
		<polygon class="st2" points="440.33,162 476.33,225.92 499.71,175.04 		"/>
		<polygon class="st2" points="529.08,188.59 499.71,175.04 476.33,225.92 		"/>
		<polygon class="st2" points="-29.18,244.98 0.19,210.05 13.62,247.92 		"/>
		<polygon class="st2" points="74.96,232.67 13.62,247.92 0.19,210.05 		"/>
		<polygon class="st2" points="13.67,247.92 75,232.67 113.62,259.25 		"/>
		<polygon class="st2" points="116.29,196.67 113.62,259.25 75,232.67 		"/>
		<polygon class="st2" points="113.67,259.25 116.33,196.67 147.09,244.98 		"/>
		<polygon class="st2" points="173.62,243.33 147.09,244.98 116.33,196.67 		"/>
		<polygon class="st2" points="147.14,244.98 173.67,243.33 202.96,265.25 		"/>
		<polygon class="st2" points="245.89,209.38 202.96,265.25 173.67,243.33 		"/>
		<polygon class="st2" points="203,265.25 245.94,209.38 264.63,244.98 		"/>
		<polygon class="st2" points="302.96,234 264.63,244.98 245.94,209.38 		"/>
		<polygon class="st2" points="264.68,244.98 303,234 302.96,256.59 		"/>
		<polygon class="st2" points="351.62,204 302.96,256.59 303,234 		"/>
		<polygon class="st2" points="303,256.59 351.67,204 382.17,244.98 		"/>
		<polygon class="st2" points="384.29,230.67 382.17,244.98 351.67,204 		"/>
		<polygon class="st2" points="382.22,244.98 384.33,230.67 412.29,253.25 		"/>
		<polygon class="st2" points="476.29,226 412.29,253.25 384.33,230.67 		"/>
		<polygon class="st2" points="412.33,253.25 476.33,226 499.71,230.59 		"/>
		<polygon class="st2" points="529.08,188.67 499.71,230.59 476.33,226 		"/>
		<polygon class="st2" points="-29.18,245.05 0.19,279.98 13.62,248 		"/>
		<polygon class="st2" points="20.29,265.92 13.62,248 0.19,279.98 		"/>
		<polygon class="st2" points="13.67,248 20.33,265.92 113.62,259.33 		"/>
		<polygon class="st2" points="118.96,304.59 113.62,259.33 20.33,265.92 		"/>
		<polygon class="st2" points="113.67,259.33 119,304.59 147.09,245.05 		"/>
		<polygon class="st2" points="176.46,279.98 147.09,245.05 119,304.59 		"/>
		<polygon class="st2" points="147.14,245.05 176.5,279.98 202.96,265.33 		"/>
		<polygon class="st2" points="255.62,265.25 202.96,265.33 176.5,279.98 		"/>
		<polygon class="st2" points="203,265.33 255.67,265.25 264.63,245.05 		"/>
		<polygon class="st2" points="294,279.98 264.63,245.05 255.67,265.25 		"/>
		<polygon class="st2" points="264.68,245.05 294.04,279.98 302.96,256.67 		"/>
		<polygon class="st2" points="352.29,301.92 302.96,256.67 294.04,279.98 		"/>
		<polygon class="st2" points="303,256.67 352.33,301.92 382.17,245.05 		"/>
		<polygon class="st2" points="412.29,296.59 382.17,245.05 352.33,301.92 		"/>
		<polygon class="st2" points="382.22,245.05 412.33,296.59 412.29,253.33 		"/>
		<polygon class="st2" points="464.29,256.59 412.29,253.33 412.33,296.59 		"/>
		<polygon class="st2" points="412.33,253.33 464.33,256.59 499.71,230.67 		"/>
		<polygon class="st2" points="529.08,279.98 499.71,230.67 464.33,256.59 		"/>
		<polygon class="st2" points="-29.18,314.99 0.19,280.06 29.55,333.25 		"/>
		<polygon class="st2" points="20.29,266 29.55,333.25 0.19,280.06 		"/>
		<polygon class="st2" points="29.59,333.25 20.33,266 46.29,307.25 		"/>
		<polygon class="st2" points="118.96,304.67 46.29,307.25 20.33,266 		"/>
		<polygon class="st2" points="46.33,307.25 119,304.67 171.62,326.59 		"/>
		<polygon class="st2" points="176.46,280.06 171.62,326.59 119,304.67 		"/>
		<polygon class="st2" points="171.67,326.59 176.5,280.06 222.96,317.92 		"/>
		<polygon class="st2" points="255.62,265.33 222.96,317.92 176.5,280.06 		"/>
		<polygon class="st2" points="223,317.92 255.67,265.33 248.29,299.92 		"/>
		<polygon class="st2" points="294,280.06 248.29,299.92 255.67,265.33 		"/>
		<polygon class="st2" points="248.33,299.92 294.04,280.06 320.29,328.59 		"/>
		<polygon class="st2" points="352.29,302 320.29,328.59 294.04,280.06 		"/>
		<polygon class="st2" points="320.33,328.59 352.33,302 364.96,313.92 		"/>
		<polygon class="st2" points="412.29,296.67 364.96,313.92 352.33,302 		"/>
		<polygon class="st2" points="365,313.92 412.33,296.67 440.28,330.99 		"/>
		<polygon class="st2" points="464.29,256.67 440.28,330.99 412.33,296.67 		"/>
		<polygon class="st2" points="440.32,330.99 464.33,256.67 499.71,314.99 		"/>
		<polygon class="st2" points="529.08,280.06 499.71,314.99 464.33,256.67 		"/>
		<polygon class="st2" points="-29.18,315.07 0.19,350 29.55,333.33 		"/>
		<polygon class="st2" points="58.91,350 29.55,333.33 0.19,350 		"/>
		<polygon class="st2" points="29.59,333.33 58.96,350 46.29,307.33 		"/>
		<polygon class="st2" points="117.69,350 46.29,307.33 58.96,350 		"/>
		<polygon class="st2" points="46.33,307.33 117.73,350 171.62,326.67 		"/>
		<polygon class="st2" points="176.46,350 171.62,326.67 117.73,350 		"/>
		<polygon class="st2" points="171.67,326.67 176.5,350 222.96,318 		"/>
		<polygon class="st2" points="235.23,350 222.96,318 176.5,350 		"/>
		<polygon class="st2" points="223,318 235.27,350 248.29,300 		"/>
		<polygon class="st2" points="294,350 248.29,300 235.27,350 		"/>
		<polygon class="st2" points="248.33,300 294.04,350 320.29,328.67 		"/>
		<polygon class="st2" points="352.77,350 320.29,328.67 294.04,350 		"/>
		<polygon class="st2" points="320.33,328.67 352.81,350 364.96,314 		"/>
		<polygon class="st2" points="411.54,350 364.96,314 352.81,350 		"/>
		<polygon class="st2" points="365,314 411.58,350 440.28,331.07 		"/>
		<polygon class="st2" points="470.31,350 440.28,331.07 411.58,350 		"/>
		<polygon class="st2" points="440.32,331.07 470.35,350 499.71,315.07 		"/>
		<polygon class="st2" points="529.08,350 499.71,315.07 470.35,350 		"/>
	</g>
</g>
</svg>
